<?xml version="1.0" encoding="UTF-8" standalone="no"?>
<!-- Created with Inkscape (http://www.inkscape.org/) -->

<svg
   width="300px"
   height="54px"
   viewBox="0 0 199.73512 36.118408"
   version="1.1"
   id="svg5"
   xml:space="preserve"
   inkscape:version="1.2.2 (732a01da63, 2022-12-09)"
   sodipodi:docname="logopihiguim.svg"
   xmlns:inkscape="http://www.inkscape.org/namespaces/inkscape"
   xmlns:sodipodi="http://sodipodi.sourceforge.net/DTD/sodipodi-0.dtd"
   xmlns="http://www.w3.org/2000/svg"
   xmlns:svg="http://www.w3.org/2000/svg"><sodipodi:namedview
     id="namedview7"
     pagecolor="#ffffff"
     bordercolor="#000000"
     borderopacity="0.25"
     inkscape:showpageshadow="2"
     inkscape:pageopacity="0.0"
     inkscape:pagecheckerboard="0"
     inkscape:deskcolor="#d1d1d1"
     inkscape:document-units="mm"
     showgrid="false"
     inkscape:zoom="0.77500001"
     inkscape:cx="535.48387"
     inkscape:cy="1073.5484"
     inkscape:window-width="1366"
     inkscape:window-height="697"
     inkscape:window-x="-8"
     inkscape:window-y="-8"
     inkscape:window-maximized="1"
     inkscape:current-layer="layer1" /><defs
     id="defs2" /><g
     inkscape:label="Camada 1"
     inkscape:groupmode="layer"
     id="layer1"
     transform="translate(-8.8951981,-39.195403)"><g
       id="g25639"
       transform="translate(1.1614705,-20.016884)"
       inkscape:export-filename="logopihiguim.svg"
       inkscape:export-xdpi="96"
       inkscape:export-ydpi="96"><g
         id="g25576"
         transform="translate(14.001475,-85.940085)"><g
           id="g25363"
           style="fill:#1c1a2d;fill-opacity:1;stroke:#ffffff;stroke-width:3.25679;stroke-linejoin:round;stroke-dasharray:none;stroke-dashoffset:0;stroke-opacity:1"
           transform="matrix(1.1357811,0,0,1.1357811,-33.360803,-24.395235)"><path
             style="fill:#1c1a2d;fill-opacity:1;stroke:#ffffff;stroke-width:3.25679;stroke-dasharray:none;stroke-opacity:1"
             d="m 29.100658,178.56561 c -1.294516,-0.41268 -2.506049,-1.79176 -3.022144,-3.44009 -0.390485,-1.24715 -0.46237,-2.49422 -0.548903,-9.52245 -0.09581,-7.78196 -0.08022,-8.13907 0.41282,-9.45685 0.639603,-1.70949 2.048575,-3.19277 3.790253,-3.99013 2.257909,-1.03371 6.16444,-0.80398 8.060867,0.47402 2.219095,1.49545 3.494172,4.60969 3.317203,8.10192 -0.12187,2.40498 -0.625906,3.62969 -1.98488,4.82288 -0.761344,0.66847 -3.462544,1.73829 -4.389022,1.73829 -0.399262,0 -0.421407,0.69692 -0.09205,2.89686 0.327133,2.1851 0.322395,6.13482 -0.0086,7.13764 -0.168177,0.50958 -0.547076,0.97715 -0.96839,1.19502 -0.805929,0.41676 -3.320357,0.44038 -4.567185,0.0429 z m 6.037101,-17.07328 c 1.227016,-0.65667 1.706557,-3.53601 0.792752,-4.75995 -0.712178,-0.95388 -1.76023,-1.18879 -3.070812,-0.68827 -1.129506,0.43136 -1.348253,0.80633 -1.351738,2.31712 -0.003,1.29769 0.440619,2.60177 1.02407,3.01044 0.605081,0.42381 1.925074,0.48494 2.605728,0.12066 z"
             id="path25333" /><g
             id="g25339"
             transform="translate(0.11302581,0.33173868)"
             style="fill:#1c1a2d;fill-opacity:1;stroke:#ffffff;stroke-width:3.25679;stroke-dasharray:none;stroke-opacity:1"><path
               style="fill:#1c1a2d;fill-opacity:1;stroke:#ffffff;stroke-width:12.3091;stroke-dasharray:none;stroke-opacity:1"
               d="m 174.30549,673.43562 c -8.06246,-2.26433 -8.33985,-3.23128 -9.05504,-31.56514 -0.50995,-20.20319 0.0311,-22.63805 5.44223,-24.48888 6.79044,-2.32264 19.90042,0.0724 24.26003,4.432 2.26214,2.26214 2.58099,3.26041 2.58099,8.08064 0,3.02481 0.38251,7.4701 0.85001,9.87844 0.46751,2.40833 1.36194,10.24749 1.98762,17.42035 1.11854,12.82294 1.10523,13.07396 -0.7945,14.97369 -1.66914,1.66913 -3.21263,1.97345 -11.33968,2.2358 -6.14634,0.19841 -10.97589,-0.13678 -13.93166,-0.9669 z"
               id="path25335"
               transform="scale(0.26458333)" /><path
               style="fill:#1c1a2d;fill-opacity:1;stroke:#ffffff;stroke-width:12.3091;stroke-dasharray:none;stroke-opacity:1"
               d="m 180.29364,599.40993 c -9.65231,-2.67634 -16.08251,-7.34074 -17.81472,-12.92264 -0.94684,-3.05108 1.13181,-9.37297 4.03713,-12.27828 2.25877,-2.25877 3.2783,-2.59186 7.90947,-2.5841 5.90145,0.01 12.70748,2.67335 16.88701,6.60853 4.59944,4.33053 5.678,16.22874 1.82077,20.08597 -2.28973,2.28973 -7.05498,2.69446 -12.83966,1.09052 z"
               id="path25337"
               transform="scale(0.26458333)" /></g><path
             style="fill:#1c1a2d;fill-opacity:1;stroke:#ffffff;stroke-width:3.25679;stroke-dasharray:none;stroke-opacity:1"
             d="m 67.836579,176.69851 c -0.0034,-0.98192 -0.108733,-2.87163 -0.234013,-4.19935 -0.526989,-5.58503 -0.03699,-6.18234 -2.169906,-6.10869 -2.113698,0.073 -3.219934,-0.53714 -3.635788,0.50763 -0.724847,1.82106 -0.581541,5.09316 -0.408146,7.86827 0.209645,3.35524 -0.508765,3.30784 -3.161504,3.23577 -2.348219,-0.0638 -2.689542,-0.3717 -2.924093,-2.63781 -0.09398,-0.90802 -0.0784,-3.33637 0.03462,-5.39632 0.113024,-2.05996 0.147375,-4.17991 0.07634,-4.711 -0.19685,-1.47163 -0.203738,-10.26142 -0.0088,-11.26478 0.347959,-1.7912 2.014004,-1.63801 2.781353,-1.65499 0.76735,-0.017 2.241537,0.0315 2.685632,0.59196 0.444093,0.56049 0.230161,1.96235 0.16509,2.80882 -0.06508,0.84647 0.09712,4.74035 0.604808,5.66602 0.815957,1.48772 1.278763,0.88368 3.351199,0.78071 0.889088,-0.0442 1.297565,-0.11391 1.789623,-0.73622 0.415214,-0.52513 0.02035,-1.77578 -0.16633,-3.73462 -0.186687,-1.95883 -0.01453,-3.79593 0.05109,-3.98397 0.419811,-1.20308 1.72086,-0.93834 3.79531,-0.84906 1.63631,0.0704 1.827704,0.13505 2.444443,0.8253 0.475038,0.53166 0.745805,1.19515 0.933468,2.28739 0.565949,3.29393 0.776727,20.10168 0.521468,20.90594 -0.221086,0.69658 -0.242134,1.18835 -3.441698,0.90417 l -2.53475,-0.22513 z"
             id="path25341"
             sodipodi:nodetypes="cssssssssszzzsssssssssscc" /><g
             id="g25347"
             transform="translate(-0.62084356,0.33290017)"
             style="fill:#1c1a2d;fill-opacity:1;stroke:#ffffff;stroke-width:3.25679;stroke-dasharray:none;stroke-opacity:1"><path
               style="fill:#1c1a2d;fill-opacity:1;stroke:#ffffff;stroke-width:12.3091;stroke-dasharray:none;stroke-opacity:1"
               d="m 302.95331,673.43562 c -8.01329,-2.25052 -8.28543,-3.22674 -9.0536,-32.47754 -0.50463,-19.21562 0.0785,-21.74233 5.44079,-23.57648 6.98228,-2.38826 21.45431,0.55137 25.01792,5.08176 1.28976,1.63966 1.8231,3.7007 1.8231,7.04525 0,2.60016 0.3777,6.9585 0.83934,9.68521 0.46163,2.72671 1.35606,10.82635 1.98762,17.99921 1.1296,12.82946 1.11686,13.07299 -0.78384,14.97369 -1.66913,1.66913 -3.21262,1.97345 -11.33968,2.2358 -6.14634,0.19841 -10.97588,-0.13678 -13.93165,-0.9669 z"
               id="path25343"
               transform="scale(0.26458333)" /><path
               style="fill:#1c1a2d;fill-opacity:1;stroke:#ffffff;stroke-width:12.3091;stroke-dasharray:none;stroke-opacity:1"
               d="m 309.07471,599.44403 c -9.70624,-2.69705 -16.81835,-7.90358 -17.8513,-13.0683 -0.77055,-3.85275 0.96057,-9.18684 3.95248,-12.17874 2.2585,-2.2585 3.2638,-2.58099 8.04583,-2.58099 7.09429,0 15.97492,4.30998 18.80412,9.1261 2.67181,4.54817 2.66909,14.66349 -0.005,17.33723 -2.50264,2.50265 -7.1052,2.98781 -12.94648,1.3647 z"
               id="path25345"
               transform="scale(0.26458333)" /></g><path
             style="fill:#1c1a2d;fill-opacity:1;stroke:#ffffff;stroke-width:3.25679;stroke-dasharray:none;stroke-opacity:1"
             d="m 102.38441,179.22446 c -0.14461,-0.18237 -0.32758,-1.29445 -0.40661,-2.47127 -0.2263,-3.36972 -0.81939,-3.83434 -3.542999,-2.77552 -4.626898,1.79873 -8.398846,-0.9334 -9.542761,-6.91211 -0.471252,-2.46301 -0.459735,-7.73391 0.02135,-9.77515 0.974998,-4.13683 3.893032,-6.37723 8.314381,-6.38358 1.720818,-0.002 2.276939,0.10136 3.446259,0.64343 1.23058,0.57048 1.46418,0.79646 1.98923,1.92426 0.64824,1.39242 0.82511,3.90586 0.33879,4.81455 -0.53241,0.99482 -2.87159,1.49299 -4.18993,0.89232 -0.336056,-0.15312 -0.747472,-0.58668 -0.91426,-0.96348 -0.234101,-0.52887 -0.413883,-0.65028 -0.788427,-0.53244 -0.814729,0.25634 -2.049423,1.19109 -2.65186,2.00765 -1.777154,2.40879 -1.218584,7.19647 1.082093,9.27499 1.508519,1.36286 4.050704,1.73336 4.952324,0.52907 0.34083,-0.45524 -0.26903,-1.47639 -0.35647,-2.24001 l -0.001,-0.0121 -2.227684,0.2414 c -1.039897,0.11269 -0.63151,-2.01427 -0.560265,-2.23299 0.292197,-0.89702 5.045899,-1.34883 7.212919,-0.7541 2.19084,0.60127 1.67719,3.02677 2.82311,7.99624 1.00847,4.37344 0.8315,5.45992 -1.04765,6.43166 -0.99807,0.51612 -3.62015,0.71337 -3.95016,0.29716 z"
             id="path25349"
             sodipodi:nodetypes="ssssscsssssssssscsssssss" /><path
             style="fill:#1c1a2d;fill-opacity:1;stroke:#ffffff;stroke-width:3.25679;stroke-dasharray:none;stroke-opacity:1"
             d="m 117.56379,177.63037 c -1.79523,-0.58815 -3.60335,-2.20946 -4.56398,-4.09244 -1.18401,-2.32086 -2.38058,-7.97478 -2.931,-13.84923 -0.33065,-3.52901 -0.16216,-5.57087 0.51566,-6.24868 0.6281,-0.62811 2.60692,-0.63835 3.37368,-0.0175 0.52468,0.42486 0.55838,0.65691 0.72749,5.00915 0.26138,6.72695 1.10718,10.1757 2.89073,11.78704 0.72651,0.65636 1.16629,0.86367 1.83207,0.86367 1.17979,0 2.27541,-0.72438 2.9942,-1.97966 0.5563,-0.97149 0.59235,-1.2464 0.56356,-4.29686 -0.0236,-2.49644 -0.20539,-4.21692 -0.77712,-7.3532 -0.52343,-2.87137 -0.48617,-3.90173 -0.30038,-4.01656 0.1457,-0.09 1.08992,-0.53829 2.31955,-0.70104 2.4849,-0.32889 3.62482,-0.12977 4.66494,0.81486 0.78799,0.71565 0.99899,1.17706 1.26103,2.7576 0.53345,3.2176 -1.21374,12.4676 -3.13838,16.61518 -1.45208,3.12924 -3.72873,4.705 -6.98296,4.83322 -1.01421,0.04 -2.1163,-0.0166 -2.44909,-0.12558 z"
             id="path25351"
             sodipodi:nodetypes="cssssssssssssssssc" /><g
             id="g25359"
             transform="translate(-0.02366954,0.37021737)"
             style="fill:#1c1a2d;fill-opacity:1;stroke:#ffffff;stroke-width:3.25679;stroke-dasharray:none;stroke-opacity:1"><path
               style="fill:#1c1a2d;fill-opacity:1;stroke:#ffffff;stroke-width:12.3091;stroke-dasharray:none;stroke-opacity:1"
               d="m 511.75935,673.73493 c -2.05936,-0.49369 -4.72143,-1.93773 -5.9157,-3.20897 -2.06588,-2.19904 -2.20864,-3.16199 -2.93795,-19.8173 -1.0825,-24.72125 -1.07919,-25.34588 0.15394,-29.03017 0.94859,-2.83415 1.70109,-3.47851 5.20934,-4.46076 7.35755,-2.05998 19.89512,0.4915 24.36133,4.95771 0.98154,0.98154 1.57746,2.98932 1.57746,5.31478 0,2.05552 0.59564,8.28751 1.32364,13.84886 3.53136,26.9766 3.51894,30.48614 -0.11325,31.99741 -2.64676,1.10125 -19.54036,1.38576 -23.65881,0.39844 z"
               id="path25353"
               transform="scale(0.26458333)" /><g
               id="g25357"
               style="fill:#1c1a2d;fill-opacity:1;stroke:#ffffff;stroke-width:3.25679;stroke-dasharray:none;stroke-opacity:1"><path
                 style="fill:#1c1a2d;fill-opacity:1;stroke:#ffffff;stroke-width:12.3091;stroke-dasharray:none;stroke-opacity:1"
                 d="m 517.78464,599.61288 c -11.2286,-3.16921 -18.24791,-9.05128 -18.24791,-15.29144 0,-4.30341 2.66266,-9.91885 5.52479,-11.65155 4.50535,-2.72748 15.40643,-0.66214 21.65314,4.10246 3.94463,3.00872 5.66832,7.10409 5.66832,13.46758 0,8.64979 -5.24014,12.01426 -14.59834,9.37295 z"
                 id="path25355"
                 transform="scale(0.26458333)" /></g></g><path
             style="fill:#1c1a2d;fill-opacity:1;stroke:#ffffff;stroke-width:12.3091;stroke-dasharray:none;stroke-opacity:1"
             d="m 558.38626,670.54763 c -10.8854,-5.64981 -13.78892,-16.27893 -12.943,-47.38127 0.97056,-35.68495 4.68714,-46.53218 15.05896,-46.53218 7.83137,0 16.28282,4.07256 22.03703,14.86857 1.87,3.50848 3.60186,5.66033 4.55555,5.66033 2.1829,0 4.86546,-3.21972 8.1355,-9.76457 3.49005,-6.98517 8.35928,-10.30814 15.10479,-10.30814 5.58436,0 9.58253,1.93943 14.09883,6.83904 6.18928,6.71457 9.99856,16.521 12.39134,31.89964 3.6993,23.77571 1.7615,41.75933 -5.33401,49.50185 -2.48602,2.71273 -3.73117,3.30771 -7.72544,3.69151 -4.61593,0.44353 -4.87,0.34375 -8.29646,-3.25821 -3.93167,-4.13305 -8.38485,-14.52607 -10.00837,-23.35798 -0.54543,-2.96715 -1.12964,-5.53276 -1.29823,-5.70135 -0.16859,-0.16859 -1.8889,2.58016 -3.82291,6.10833 -4.23549,7.72672 -7.42865,8.57138 -10.6613,7.76004 -3.30383,-0.82921 -9.62288,-11.54567 -9.62288,-14.0468 0,-1.07532 0.34899,0.78206 -0.0608,0.78206 -0.40983,0 -0.71776,5.02958 -0.6843,11.17685 0.0728,13.3824 -1.45597,18.6596 -6.26711,21.63304 -3.66312,2.26394 -10.72389,2.4707 -14.65716,0.42924 z"
             id="path25361"
             transform="scale(0.26458333)"
             sodipodi:nodetypes="ssssssssssssssssssssss" /></g><g
           id="g12722"
           style="fill:#1c1a2d;fill-opacity:1;stroke:#1c1a2d;stroke-width:2.2;stroke-linejoin:round;stroke-dasharray:none;stroke-dashoffset:0;stroke-opacity:1"
           transform="matrix(1.1357811,0,0,1.1357811,-33.360737,-24.395029)"><path
             style="fill:#1c1a2d;fill-opacity:1;stroke:#1c1a2d;stroke-width:2.2;stroke-dasharray:none;stroke-opacity:1"
             d="m 29.100658,178.56561 c -1.294516,-0.41268 -2.506049,-1.79176 -3.022144,-3.44009 -0.390485,-1.24715 -0.46237,-2.49422 -0.548903,-9.52245 -0.09581,-7.78196 -0.08022,-8.13907 0.41282,-9.45685 0.639603,-1.70949 2.048575,-3.19277 3.790253,-3.99013 2.257909,-1.03371 6.16444,-0.80398 8.060867,0.47402 2.219095,1.49545 3.494172,4.60969 3.317203,8.10192 -0.12187,2.40498 -0.625906,3.62969 -1.98488,4.82288 -0.761344,0.66847 -3.462544,1.73829 -4.389022,1.73829 -0.399262,0 -0.421407,0.69692 -0.09205,2.89686 0.327133,2.1851 0.322395,6.13482 -0.0086,7.13764 -0.168177,0.50958 -0.547076,0.97715 -0.96839,1.19502 -0.805929,0.41676 -3.320357,0.44038 -4.567185,0.0429 z m 6.037101,-17.07328 c 1.227016,-0.65667 1.706557,-3.53601 0.792752,-4.75995 -0.712178,-0.95388 -1.76023,-1.18879 -3.070812,-0.68827 -1.129506,0.43136 -1.348253,0.80633 -1.351738,2.31712 -0.003,1.29769 0.440619,2.60177 1.02407,3.01044 0.605081,0.42381 1.925074,0.48494 2.605728,0.12066 z"
             id="path12692" /><g
             id="g12698"
             transform="translate(0.11302581,0.33173868)"
             style="fill:#1c1a2d;fill-opacity:1;stroke:#1c1a2d;stroke-width:2.2;stroke-dasharray:none;stroke-opacity:1"><path
               style="fill:#1c1a2d;fill-opacity:1;stroke:#1c1a2d;stroke-width:8.31496;stroke-dasharray:none;stroke-opacity:1"
               d="m 174.30549,673.43562 c -8.06246,-2.26433 -8.33985,-3.23128 -9.05504,-31.56514 -0.50995,-20.20319 0.0311,-22.63805 5.44223,-24.48888 6.79044,-2.32264 19.90042,0.0724 24.26003,4.432 2.26214,2.26214 2.58099,3.26041 2.58099,8.08064 0,3.02481 0.38251,7.4701 0.85001,9.87844 0.46751,2.40833 1.36194,10.24749 1.98762,17.42035 1.11854,12.82294 1.10523,13.07396 -0.7945,14.97369 -1.66914,1.66913 -3.21263,1.97345 -11.33968,2.2358 -6.14634,0.19841 -10.97589,-0.13678 -13.93166,-0.9669 z"
               id="path12694"
               transform="scale(0.26458333)" /><path
               style="fill:#1c1a2d;fill-opacity:1;stroke:#1c1a2d;stroke-width:8.31496;stroke-dasharray:none;stroke-opacity:1"
               d="m 180.29364,599.40993 c -9.65231,-2.67634 -16.08251,-7.34074 -17.81472,-12.92264 -0.94684,-3.05108 1.13181,-9.37297 4.03713,-12.27828 2.25877,-2.25877 3.2783,-2.59186 7.90947,-2.5841 5.90145,0.01 12.70748,2.67335 16.88701,6.60853 4.59944,4.33053 5.678,16.22874 1.82077,20.08597 -2.28973,2.28973 -7.05498,2.69446 -12.83966,1.09052 z"
               id="path12696"
               transform="scale(0.26458333)" /></g><path
             style="fill:#1c1a2d;fill-opacity:1;stroke:#1c1a2d;stroke-width:2.2;stroke-dasharray:none;stroke-opacity:1"
             d="m 67.836579,176.69851 c -0.0034,-0.98192 -0.108733,-2.87163 -0.234013,-4.19935 -0.526989,-5.58503 -0.03699,-6.18234 -2.169906,-6.10869 -2.113698,0.073 -3.219934,-0.53714 -3.635788,0.50763 -0.724847,1.82106 -0.581541,5.09316 -0.408146,7.86827 0.209645,3.35524 -0.508765,3.30784 -3.161504,3.23577 -2.348219,-0.0638 -2.689542,-0.3717 -2.924093,-2.63781 -0.09398,-0.90802 -0.0784,-3.33637 0.03462,-5.39632 0.113024,-2.05996 0.147375,-4.17991 0.07634,-4.711 -0.19685,-1.47163 -0.203738,-10.26142 -0.0088,-11.26478 0.347959,-1.7912 2.014004,-1.63801 2.781353,-1.65499 0.76735,-0.017 2.241537,0.0315 2.685632,0.59196 0.444093,0.56049 0.230161,1.96235 0.16509,2.80882 -0.06508,0.84647 0.09712,4.74035 0.604808,5.66602 0.815957,1.48772 1.278763,0.88368 3.351199,0.78071 0.889088,-0.0442 1.297565,-0.11391 1.789623,-0.73622 0.415214,-0.52513 0.02035,-1.77578 -0.16633,-3.73462 -0.186687,-1.95883 -0.01453,-3.79593 0.05109,-3.98397 0.419811,-1.20308 1.72086,-0.93834 3.79531,-0.84906 1.63631,0.0704 1.827704,0.13505 2.444443,0.8253 0.475038,0.53166 0.745805,1.19515 0.933468,2.28739 0.565949,3.29393 0.776727,20.10168 0.521468,20.90594 -0.221086,0.69658 -0.242134,1.18835 -3.441698,0.90417 l -2.53475,-0.22513 z"
             id="path12700"
             sodipodi:nodetypes="cssssssssszzzsssssssssscc" /><g
             id="g12706"
             transform="translate(-0.62084356,0.33290017)"
             style="fill:#1c1a2d;fill-opacity:1;stroke:#1c1a2d;stroke-width:2.2;stroke-dasharray:none;stroke-opacity:1"><path
               style="fill:#1c1a2d;fill-opacity:1;stroke:#1c1a2d;stroke-width:8.31496;stroke-dasharray:none;stroke-opacity:1"
               d="m 302.95331,673.43562 c -8.01329,-2.25052 -8.28543,-3.22674 -9.0536,-32.47754 -0.50463,-19.21562 0.0785,-21.74233 5.44079,-23.57648 6.98228,-2.38826 21.45431,0.55137 25.01792,5.08176 1.28976,1.63966 1.8231,3.7007 1.8231,7.04525 0,2.60016 0.3777,6.9585 0.83934,9.68521 0.46163,2.72671 1.35606,10.82635 1.98762,17.99921 1.1296,12.82946 1.11686,13.07299 -0.78384,14.97369 -1.66913,1.66913 -3.21262,1.97345 -11.33968,2.2358 -6.14634,0.19841 -10.97588,-0.13678 -13.93165,-0.9669 z"
               id="path12702"
               transform="scale(0.26458333)" /><path
               style="fill:#1c1a2d;fill-opacity:1;stroke:#1c1a2d;stroke-width:8.31496;stroke-dasharray:none;stroke-opacity:1"
               d="m 309.07471,599.44403 c -9.70624,-2.69705 -16.81835,-7.90358 -17.8513,-13.0683 -0.77055,-3.85275 0.96057,-9.18684 3.95248,-12.17874 2.2585,-2.2585 3.2638,-2.58099 8.04583,-2.58099 7.09429,0 15.97492,4.30998 18.80412,9.1261 2.67181,4.54817 2.66909,14.66349 -0.005,17.33723 -2.50264,2.50265 -7.1052,2.98781 -12.94648,1.3647 z"
               id="path12704"
               transform="scale(0.26458333)" /></g><path
             style="fill:#1c1a2d;fill-opacity:1;stroke:#1c1a2d;stroke-width:2.2;stroke-dasharray:none;stroke-opacity:1"
             d="m 102.38441,179.22446 c -0.14461,-0.18237 -0.32758,-1.29445 -0.40661,-2.47127 -0.2263,-3.36972 -0.81939,-3.83434 -3.542999,-2.77552 -4.626898,1.79873 -8.398846,-0.9334 -9.542761,-6.91211 -0.471252,-2.46301 -0.459735,-7.73391 0.02135,-9.77515 0.974998,-4.13683 3.893032,-6.37723 8.314381,-6.38358 1.720818,-0.002 2.276939,0.10136 3.446259,0.64343 1.23058,0.57048 1.46418,0.79646 1.98923,1.92426 0.64824,1.39242 0.82511,3.90586 0.33879,4.81455 -0.53241,0.99482 -2.87159,1.49299 -4.18993,0.89232 -0.336056,-0.15312 -0.747472,-0.58668 -0.91426,-0.96348 -0.234101,-0.52887 -0.413883,-0.65028 -0.788427,-0.53244 -0.814729,0.25634 -2.049423,1.19109 -2.65186,2.00765 -1.777154,2.40879 -1.218584,7.19647 1.082093,9.27499 1.508519,1.36286 4.050704,1.73336 4.952324,0.52907 0.34083,-0.45524 -0.26903,-1.47639 -0.35647,-2.24001 l -0.001,-0.0121 -2.227684,0.2414 c -1.039897,0.11269 -0.63151,-2.01427 -0.560265,-2.23299 0.292197,-0.89702 5.045899,-1.34883 7.212919,-0.7541 2.19084,0.60127 1.67719,3.02677 2.82311,7.99624 1.00847,4.37344 0.8315,5.45992 -1.04765,6.43166 -0.99807,0.51612 -3.62015,0.71337 -3.95016,0.29716 z"
             id="path12708"
             sodipodi:nodetypes="ssssscsssssssssscsssssss" /><path
             style="fill:#1c1a2d;fill-opacity:1;stroke:#1c1a2d;stroke-width:2.2;stroke-dasharray:none;stroke-opacity:1"
             d="m 117.56379,177.63037 c -1.79523,-0.58815 -3.60335,-2.20946 -4.56398,-4.09244 -1.18401,-2.32086 -2.38058,-7.97478 -2.931,-13.84923 -0.33065,-3.52901 -0.16216,-5.57087 0.51566,-6.24868 0.6281,-0.62811 2.60692,-0.63835 3.37368,-0.0175 0.52468,0.42486 0.55838,0.65691 0.72749,5.00915 0.26138,6.72695 1.10718,10.1757 2.89073,11.78704 0.72651,0.65636 1.16629,0.86367 1.83207,0.86367 1.17979,0 2.27541,-0.72438 2.9942,-1.97966 0.5563,-0.97149 0.59235,-1.2464 0.56356,-4.29686 -0.0236,-2.49644 -0.20539,-4.21692 -0.77712,-7.3532 -0.52343,-2.87137 -0.48617,-3.90173 -0.30038,-4.01656 0.1457,-0.09 1.08992,-0.53829 2.31955,-0.70104 2.4849,-0.32889 3.62482,-0.12977 4.66494,0.81486 0.78799,0.71565 0.99899,1.17706 1.26103,2.7576 0.53345,3.2176 -1.21374,12.4676 -3.13838,16.61518 -1.45208,3.12924 -3.72873,4.705 -6.98296,4.83322 -1.01421,0.04 -2.1163,-0.0166 -2.44909,-0.12558 z"
             id="path12710"
             sodipodi:nodetypes="cssssssssssssssssc" /><g
             id="g12718"
             transform="translate(-0.02366954,0.37021737)"
             style="fill:#1c1a2d;fill-opacity:1;stroke:#1c1a2d;stroke-width:2.2;stroke-dasharray:none;stroke-opacity:1"><path
               style="fill:#1c1a2d;fill-opacity:1;stroke:#1c1a2d;stroke-width:8.31496;stroke-dasharray:none;stroke-opacity:1"
               d="m 511.75935,673.73493 c -2.05936,-0.49369 -4.72143,-1.93773 -5.9157,-3.20897 -2.06588,-2.19904 -2.20864,-3.16199 -2.93795,-19.8173 -1.0825,-24.72125 -1.07919,-25.34588 0.15394,-29.03017 0.94859,-2.83415 1.70109,-3.47851 5.20934,-4.46076 7.35755,-2.05998 19.89512,0.4915 24.36133,4.95771 0.98154,0.98154 1.57746,2.98932 1.57746,5.31478 0,2.05552 0.59564,8.28751 1.32364,13.84886 3.53136,26.9766 3.51894,30.48614 -0.11325,31.99741 -2.64676,1.10125 -19.54036,1.38576 -23.65881,0.39844 z"
               id="path12712"
               transform="scale(0.26458333)" /><g
               id="g12716"
               style="fill:#1c1a2d;fill-opacity:1;stroke:#1c1a2d;stroke-width:2.2;stroke-dasharray:none;stroke-opacity:1"><path
                 style="fill:#1c1a2d;fill-opacity:1;stroke:#1c1a2d;stroke-width:8.31496;stroke-dasharray:none;stroke-opacity:1"
                 d="m 517.78464,599.61288 c -11.2286,-3.16921 -18.24791,-9.05128 -18.24791,-15.29144 0,-4.30341 2.66266,-9.91885 5.52479,-11.65155 4.50535,-2.72748 15.40643,-0.66214 21.65314,4.10246 3.94463,3.00872 5.66832,7.10409 5.66832,13.46758 0,8.64979 -5.24014,12.01426 -14.59834,9.37295 z"
                 id="path12714"
                 transform="scale(0.26458333)" /></g></g><path
             style="fill:#1c1a2d;fill-opacity:1;stroke:#1c1a2d;stroke-width:8.31496;stroke-dasharray:none;stroke-opacity:1"
             d="m 558.38626,670.54763 c -10.8854,-5.64981 -13.78892,-16.27893 -12.943,-47.38127 0.97056,-35.68495 4.68714,-46.53218 15.05896,-46.53218 7.83137,0 16.28282,4.07256 22.03703,14.86857 1.87,3.50848 3.60186,5.66033 4.55555,5.66033 2.1829,0 4.86546,-3.21972 8.1355,-9.76457 3.49005,-6.98517 8.35928,-10.30814 15.10479,-10.30814 5.58436,0 9.58253,1.93943 14.09883,6.83904 6.18928,6.71457 9.99856,16.521 12.39134,31.89964 3.6993,23.77571 1.7615,41.75933 -5.33401,49.50185 -2.48602,2.71273 -3.73117,3.30771 -7.72544,3.69151 -4.61593,0.44353 -4.87,0.34375 -8.29646,-3.25821 -3.93167,-4.13305 -8.38485,-14.52607 -10.00837,-23.35798 -0.54543,-2.96715 -1.12964,-5.53276 -1.29823,-5.70135 -0.16859,-0.16859 -1.8889,2.58016 -3.82291,6.10833 -4.23549,7.72672 -7.42865,8.57138 -10.6613,7.76004 -3.30383,-0.82921 -9.62288,-11.54567 -9.62288,-14.0468 0,-1.07532 0.34899,0.78206 -0.0608,0.78206 -0.40983,0 -0.71776,5.02958 -0.6843,11.17685 0.0728,13.3824 -1.45597,18.6596 -6.26711,21.63304 -3.66312,2.26394 -10.72389,2.4707 -14.65716,0.42924 z"
             id="path12720"
             transform="scale(0.26458333)"
             sodipodi:nodetypes="ssssssssssssssssssssss" /></g><g
           id="g19730"
           transform="matrix(1.1357811,0,0,1.1357811,-21.819014,-24.654901)"
           style="stroke:#ffffff;stroke-opacity:1"><path
             style="fill:#5f5799;fill-opacity:1;stroke:#ffffff;stroke-width:0.6;stroke-linejoin:round;stroke-dasharray:none;stroke-dashoffset:0;stroke-opacity:1"
             d="m 18.93882,178.79496 c -1.294516,-0.41268 -2.506049,-1.79176 -3.022144,-3.44009 -0.390485,-1.24715 -0.46237,-2.49422 -0.548903,-9.52245 -0.09581,-7.78196 -0.08022,-8.13907 0.41282,-9.45685 0.639603,-1.70949 2.048575,-3.19277 3.790253,-3.99013 2.257909,-1.03371 6.16444,-0.80398 8.060867,0.47402 2.219095,1.49545 3.494172,4.60969 3.317203,8.10192 -0.12187,2.40498 -0.625906,3.62969 -1.98488,4.82288 -0.761344,0.66847 -3.462544,1.73829 -4.389022,1.73829 -0.399262,0 -0.421407,0.69692 -0.09205,2.89686 0.327133,2.1851 0.322395,6.13482 -0.0086,7.13764 -0.168177,0.50958 -0.547076,0.97715 -0.96839,1.19502 -0.805929,0.41676 -3.320357,0.44038 -4.567185,0.0429 z m 6.037101,-17.07328 c 1.227016,-0.65667 1.706557,-3.53601 0.792752,-4.75995 -0.712178,-0.95388 -1.76023,-1.18879 -3.070812,-0.68827 -1.129506,0.43136 -1.348253,0.80633 -1.351738,2.31712 -0.003,1.29769 0.440619,2.60177 1.02407,3.01044 0.605081,0.42381 1.925074,0.48494 2.605728,0.12066 z"
             id="path12724" /><g
             id="g12730"
             transform="translate(-10.048812,0.56066099)"
             style="fill:#5f5799;fill-opacity:1;stroke:#ffffff;stroke-width:0.6;stroke-linejoin:round;stroke-dasharray:none;stroke-dashoffset:0;stroke-opacity:1"><path
               style="fill:#5f5799;fill-opacity:1;stroke:#ffffff;stroke-width:2.26772;stroke-linejoin:round;stroke-dasharray:none;stroke-dashoffset:0;stroke-opacity:1"
               d="m 174.30549,673.43562 c -8.06246,-2.26433 -8.33985,-3.23128 -9.05504,-31.56514 -0.50995,-20.20319 0.0311,-22.63805 5.44223,-24.48888 6.79044,-2.32264 19.90042,0.0724 24.26003,4.432 2.26214,2.26214 2.58099,3.26041 2.58099,8.08064 0,3.02481 0.38251,7.4701 0.85001,9.87844 0.46751,2.40833 1.36194,10.24749 1.98762,17.42035 1.11854,12.82294 1.10523,13.07396 -0.7945,14.97369 -1.66914,1.66913 -3.21263,1.97345 -11.33968,2.2358 -6.14634,0.19841 -10.97589,-0.13678 -13.93166,-0.9669 z"
               id="path12726"
               transform="scale(0.26458333)" /><path
               style="fill:#5f5799;fill-opacity:1;stroke:#ffffff;stroke-width:2.26772;stroke-linejoin:round;stroke-dasharray:none;stroke-dashoffset:0;stroke-opacity:1"
               d="m 180.29364,599.40993 c -9.65231,-2.67634 -16.08251,-7.34074 -17.81472,-12.92264 -0.94684,-3.05108 1.13181,-9.37297 4.03713,-12.27828 2.25877,-2.25877 3.2783,-2.59186 7.90947,-2.5841 5.90145,0.01 12.70748,2.67335 16.88701,6.60853 4.59944,4.33053 5.678,16.22874 1.82077,20.08597 -2.28973,2.28973 -7.05498,2.69446 -12.83966,1.09052 z"
               id="path12728"
               transform="scale(0.26458333)" /></g><path
             style="fill:#5f5799;fill-opacity:1;stroke:#ffffff;stroke-width:0.6;stroke-linejoin:round;stroke-dasharray:none;stroke-dashoffset:0;stroke-opacity:1"
             d="m 57.674741,176.92757 c -0.0034,-0.98192 -0.108733,-2.87163 -0.234013,-4.19935 -0.526989,-5.58503 -0.03699,-6.18234 -2.169906,-6.10869 -2.113698,0.073 -3.219934,-0.53714 -3.635788,0.50763 -0.724847,1.82106 -0.581541,5.09316 -0.408146,7.86827 0.209645,3.35524 -0.508765,3.30784 -3.161504,3.23577 -2.348219,-0.0638 -2.689542,-0.3717 -2.924093,-2.63781 -0.09398,-0.90802 -0.0784,-3.33637 0.03462,-5.39632 0.113024,-2.05996 0.147375,-4.17991 0.07634,-4.711 -0.19685,-1.47163 -0.203738,-10.26142 -0.0088,-11.26478 0.347959,-1.7912 2.014004,-1.63801 2.781353,-1.65499 0.76735,-0.017 2.241537,0.0315 2.685632,0.59196 0.444093,0.56049 0.230161,1.96235 0.16509,2.80882 -0.06508,0.84647 0.09712,4.74035 0.604808,5.66602 0.815957,1.48772 1.278763,0.88368 3.351199,0.78071 0.889088,-0.0442 1.297565,-0.11391 1.789623,-0.73622 0.415214,-0.52513 0.02035,-1.77578 -0.16633,-3.73462 -0.186687,-1.95883 -0.01453,-3.79593 0.05109,-3.98397 0.419811,-1.20308 1.72086,-0.93834 3.79531,-0.84906 1.63631,0.0704 1.827704,0.13505 2.444443,0.8253 0.475038,0.53166 0.745805,1.19515 0.933468,2.28739 0.565949,3.29393 0.776727,20.10168 0.521468,20.90594 -0.221086,0.69658 -0.242134,1.18835 -3.441698,0.90417 l -2.53475,-0.22513 z"
             id="path12732"
             sodipodi:nodetypes="cssssssssszzzsssssssssscc" /><g
             id="g12738"
             transform="translate(-10.782682,0.56181863)"
             style="fill:#5f5799;fill-opacity:1;stroke:#ffffff;stroke-width:0.6;stroke-linejoin:round;stroke-dasharray:none;stroke-dashoffset:0;stroke-opacity:1"><path
               style="fill:#5f5799;fill-opacity:1;stroke:#ffffff;stroke-width:2.26772;stroke-linejoin:round;stroke-dasharray:none;stroke-dashoffset:0;stroke-opacity:1"
               d="m 302.95331,673.43562 c -8.01329,-2.25052 -8.28543,-3.22674 -9.0536,-32.47754 -0.50463,-19.21562 0.0785,-21.74233 5.44079,-23.57648 6.98228,-2.38826 21.45431,0.55137 25.01792,5.08176 1.28976,1.63966 1.8231,3.7007 1.8231,7.04525 0,2.60016 0.3777,6.9585 0.83934,9.68521 0.46163,2.72671 1.35606,10.82635 1.98762,17.99921 1.1296,12.82946 1.11686,13.07299 -0.78384,14.97369 -1.66913,1.66913 -3.21262,1.97345 -11.33968,2.2358 -6.14634,0.19841 -10.97588,-0.13678 -13.93165,-0.9669 z"
               id="path12734"
               transform="scale(0.26458333)" /><path
               style="fill:#5f5799;fill-opacity:1;stroke:#ffffff;stroke-width:2.26772;stroke-linejoin:round;stroke-dasharray:none;stroke-dashoffset:0;stroke-opacity:1"
               d="m 309.07471,599.44403 c -9.70624,-2.69705 -16.81835,-7.90358 -17.8513,-13.0683 -0.77055,-3.85275 0.96057,-9.18684 3.95248,-12.17874 2.2585,-2.2585 3.2638,-2.58099 8.04583,-2.58099 7.09429,0 15.97492,4.30998 18.80412,9.1261 2.67181,4.54817 2.66909,14.66349 -0.005,17.33723 -2.50264,2.50265 -7.1052,2.98781 -12.94648,1.3647 z"
               id="path12736"
               transform="scale(0.26458333)" /></g><path
             style="fill:#5f5799;fill-opacity:1;stroke:#ffffff;stroke-width:0.6;stroke-linejoin:round;stroke-dasharray:none;stroke-dashoffset:0;stroke-opacity:1"
             d="m 92.222572,179.45354 c -0.14461,-0.18237 -0.32758,-1.29445 -0.40661,-2.47127 -0.2263,-3.36972 -0.81939,-3.83434 -3.542999,-2.77552 -4.626898,1.79873 -8.398846,-0.9334 -9.542761,-6.91211 -0.471252,-2.46301 -0.459735,-7.73391 0.02135,-9.77515 0.974998,-4.13683 3.893032,-6.37723 8.314381,-6.38358 1.720818,-0.002 2.276939,0.10136 3.446259,0.64343 1.23058,0.57048 1.46418,0.79646 1.98923,1.92426 0.64824,1.39242 0.82511,3.90586 0.33879,4.81455 -0.53241,0.99482 -2.87159,1.49299 -4.18993,0.89232 -0.336056,-0.15312 -0.747472,-0.58668 -0.91426,-0.96348 -0.234101,-0.52887 -0.413883,-0.65028 -0.788427,-0.53244 -0.814729,0.25634 -2.049423,1.19109 -2.65186,2.00765 -1.777154,2.40879 -1.218584,7.19647 1.082093,9.27499 1.508519,1.36286 4.050704,1.73336 4.952324,0.52907 0.34083,-0.45524 -0.26903,-1.47639 -0.35647,-2.24001 l -10e-4,-0.0121 -2.227684,0.2414 c -1.039897,0.11269 -0.63151,-2.01427 -0.560265,-2.23299 0.292197,-0.89702 5.045899,-1.34883 7.212919,-0.7541 2.19084,0.60127 1.67719,3.02677 2.82311,7.99624 1.00847,4.37344 0.8315,5.45992 -1.04765,6.43166 -0.99807,0.51612 -3.62015,0.71337 -3.95016,0.29716 z"
             id="path12740"
             sodipodi:nodetypes="ssssscsssssssssscsssssss" /><path
             style="fill:#5f5799;fill-opacity:1;stroke:#ffffff;stroke-width:0.6;stroke-linejoin:round;stroke-dasharray:none;stroke-dashoffset:0;stroke-opacity:1"
             d="m 107.40195,177.85981 c -1.79523,-0.58815 -3.60335,-2.20946 -4.56398,-4.09244 -1.18401,-2.32086 -2.38058,-7.97478 -2.930998,-13.84923 -0.33065,-3.52901 -0.16216,-5.57087 0.515658,-6.24868 0.6281,-0.62811 2.60692,-0.63835 3.37368,-0.0175 0.52468,0.42486 0.55838,0.65691 0.72749,5.00915 0.26138,6.72695 1.10718,10.1757 2.89073,11.78704 0.72651,0.65636 1.16629,0.86367 1.83207,0.86367 1.17979,0 2.27541,-0.72438 2.9942,-1.97966 0.5563,-0.97149 0.59235,-1.2464 0.56356,-4.29686 -0.0236,-2.49644 -0.20539,-4.21692 -0.77712,-7.3532 -0.52343,-2.87137 -0.48617,-3.90173 -0.30038,-4.01656 0.1457,-0.09 1.08992,-0.53829 2.31955,-0.70104 2.4849,-0.32889 3.62482,-0.12977 4.66494,0.81486 0.78799,0.71565 0.99899,1.17706 1.26103,2.7576 0.53345,3.2176 -1.21374,12.4676 -3.13838,16.61518 -1.45208,3.12924 -3.72873,4.705 -6.98296,4.83322 -1.01421,0.04 -2.1163,-0.0166 -2.44909,-0.12558 z"
             id="path12742"
             sodipodi:nodetypes="cssssssssssssssssc" /><g
             id="g12750"
             transform="translate(-10.185508,0.60167933)"
             style="fill:#5f5799;fill-opacity:1;stroke:#ffffff;stroke-width:0.6;stroke-linejoin:round;stroke-dasharray:none;stroke-dashoffset:0;stroke-opacity:1"><path
               style="fill:#5f5799;fill-opacity:1;stroke:#ffffff;stroke-width:2.26772;stroke-linejoin:round;stroke-dasharray:none;stroke-dashoffset:0;stroke-opacity:1"
               d="m 511.75935,673.73493 c -2.05936,-0.49369 -4.72143,-1.93773 -5.9157,-3.20897 -2.06588,-2.19904 -2.20864,-3.16199 -2.93795,-19.8173 -1.0825,-24.72125 -1.07919,-25.34588 0.15394,-29.03017 0.94859,-2.83415 1.70109,-3.47851 5.20934,-4.46076 7.35755,-2.05998 19.89512,0.4915 24.36133,4.95771 0.98154,0.98154 1.57746,2.98932 1.57746,5.31478 0,2.05552 0.59564,8.28751 1.32364,13.84886 3.53136,26.9766 3.51894,30.48614 -0.11325,31.99741 -2.64676,1.10125 -19.54036,1.38576 -23.65881,0.39844 z"
               id="path12744"
               transform="scale(0.26458333)" /><g
               id="g12748"
               style="fill:#5f5799;fill-opacity:1;stroke:#ffffff;stroke-width:0.6;stroke-linejoin:round;stroke-dasharray:none;stroke-dashoffset:0;stroke-opacity:1"><path
                 style="fill:#5f5799;fill-opacity:1;stroke:#ffffff;stroke-width:2.26772;stroke-linejoin:round;stroke-dasharray:none;stroke-dashoffset:0;stroke-opacity:1"
                 d="m 517.78464,599.61288 c -11.2286,-3.16921 -18.24791,-9.05128 -18.24791,-15.29144 0,-4.30341 2.66266,-9.91885 5.52479,-11.65155 4.50535,-2.72748 15.40643,-0.66214 21.65314,4.10246 3.94463,3.00872 5.66832,7.10409 5.66832,13.46758 0,8.64979 -5.24014,12.01426 -14.59834,9.37295 z"
                 id="path12746"
                 transform="scale(0.26458333)" /></g></g><path
             style="fill:#5f5799;fill-opacity:1;stroke:#ffffff;stroke-width:0.600001;stroke-linejoin:round;stroke-dasharray:none;stroke-dashoffset:0;stroke-opacity:1"
             d="m 137.57786,177.64484 c -2.8801,-1.49484 -3.64832,-4.30713 -3.4245,-12.53629 0.25679,-9.44164 1.24014,-12.31164 3.98435,-12.31164 2.07205,0 4.30816,1.07753 5.83063,3.93398 0.49477,0.92828 0.95299,1.49762 1.20532,1.49762 0.57756,0 1.28732,-0.85188 2.15252,-2.58354 0.92341,-1.84816 2.21172,-2.72736 3.99647,-2.72736 1.47753,0 2.53538,0.51314 3.73032,1.8095 1.63758,1.77656 2.64545,4.37118 3.27854,8.44011 0.97877,6.29066 0.46606,11.04882 -1.41129,13.09736 -0.65776,0.71775 -0.98721,0.87517 -2.04402,0.97672 -1.2213,0.11735 -1.28852,0.0909 -2.19511,-0.86207 -1.04025,-1.09354 -2.21849,-3.84336 -2.64805,-6.18013 -0.14431,-0.78506 -0.29888,-1.46388 -0.34349,-1.50849 -0.0446,-0.0446 -0.49977,0.68267 -1.01147,1.61617 -1.12064,2.04436 -1.9655,2.26784 -2.82081,2.05317 -0.87413,-0.21939 -2.54605,-3.05479 -2.54605,-3.71655 0,-0.28451 0.0923,0.20692 -0.0161,0.20692 -0.10843,0 -0.1899,1.33075 -0.18105,2.95721 0.0193,3.54076 -0.38523,4.93702 -1.65817,5.72374 -0.9692,0.599 -2.83737,0.65371 -3.87804,0.11357 z"
             id="path12752"
             sodipodi:nodetypes="ssssssssssssssssssssss" /></g></g><g
         id="g25526"
         transform="translate(14.001475,-87.169978)"
         inkscape:export-filename="pihiguimver2.png"
         inkscape:export-xdpi="96"
         inkscape:export-ydpi="96"><path
           id="path25513"
           style="fill:#ffffff;fill-opacity:1;stroke:#ffffff;stroke-width:1.827;stroke-linecap:round;stroke-linejoin:round;stroke-dasharray:none;stroke-opacity:1"
           d="m 192.55386,164.44147 a 15.322739,15.322739 0 0 1 -15.32274,15.32274 15.322739,15.322739 0 0 1 -15.32274,-15.32274 15.322739,15.322739 0 0 1 15.32274,-15.32274 15.322739,15.322739 0 0 1 15.32274,15.32274 z" /><path
           id="path19500"
           style="fill:#ffffff;fill-opacity:1;stroke:#1c1a2d;stroke-width:0.826849;stroke-linecap:round;stroke-linejoin:round;stroke-dasharray:none;stroke-opacity:1"
           d="m 192.55386,164.44147 a 15.322739,15.322739 0 0 1 -15.32274,15.32274 15.322739,15.322739 0 0 1 -15.32274,-15.32274 15.322739,15.322739 0 0 1 15.32274,-15.32274 15.322739,15.322739 0 0 1 15.32274,15.32274 z" /><path
           style="fill:#5f5799;fill-opacity:1;stroke:#1c1a2d;stroke-width:0.599692;stroke-linecap:round;stroke-linejoin:round;stroke-dasharray:none;stroke-opacity:1"
           d="m 176.03816,157.87008 c -0.53334,-2.0413 -6.89224,-3.61333 -10.01443,-3.03616 -0.94453,0.17459 -1.87486,1.8277 -1.94002,1.76256 -0.12357,-0.12358 0.65374,-1.35578 1.84089,-2.6413 1.13722,-1.23145 2.66571,-2.51184 3.46131,-2.91345 5.07923,-2.56401 10.61119,-2.56399 15.69042,0 1.62612,0.82086 5.29621,4.92376 5.05424,5.16572 -0.0652,0.0652 -0.74752,-1.19894 -1.69205,-1.37353 -3.11403,-0.57567 -9.0515,0.90637 -9.74338,2.846 -0.69187,1.93962 0.0968,5.28483 0.0968,5.28483 0,0 0.70706,2.37385 0.11937,3.70311 -0.58769,1.32927 -0.86959,1.45357 -1.65537,1.45169 -0.78578,-0.002 -1.31298,-0.29855 -1.88138,-1.66592 -0.56839,-1.36737 0.37036,-3.54668 0.37036,-3.54668 0,0 0.8266,-2.99559 0.29325,-5.03687 z"
           id="path19502"
           sodipodi:nodetypes="zscssssczczzzcz" /><g
           id="g19508"
           transform="matrix(0.61064428,0,0,0.61064428,102.86978,58.98268)"><path
             id="path19504"
             style="fill:#1c1a2d;fill-opacity:1;stroke-width:3.38799;stroke-linecap:round;stroke-linejoin:round"
             d="m 114.70968,167.1996 a 5.0356183,5.0356183 0 0 1 -5.03562,5.03562 5.0356183,5.0356183 0 0 1 -5.03562,-5.03562 5.0356183,5.0356183 0 0 1 5.03562,-5.03562 5.0356183,5.0356183 0 0 1 5.03562,5.03562 z" /><path
             id="path19506"
             style="fill:#ffffff;fill-opacity:1;stroke-width:1.96683;stroke-linecap:round;stroke-linejoin:round"
             d="m 113.71355,166.17363 a 2.9233255,2.9233255 0 0 1 -2.92333,2.92332 2.9233255,2.9233255 0 0 1 -2.92332,-2.92332 2.9233255,2.9233255 0 0 1 2.92332,-2.92333 2.9233255,2.9233255 0 0 1 2.92333,2.92333 z" /></g><g
           id="g19514"
           transform="matrix(0.61064428,0,0,0.61064428,117.02136,58.98268)"><path
             id="path19510"
             style="fill:#1c1a2d;fill-opacity:1;stroke-width:3.38799;stroke-linecap:round;stroke-linejoin:round"
             d="m 114.70968,167.1996 a 5.0356183,5.0356183 0 0 1 -5.03562,5.03562 5.0356183,5.0356183 0 0 1 -5.03562,-5.03562 5.0356183,5.0356183 0 0 1 5.03562,-5.03562 5.0356183,5.0356183 0 0 1 5.03562,5.03562 z" /><path
             id="path19512"
             style="fill:#ffffff;fill-opacity:1;stroke-width:1.96683;stroke-linecap:round;stroke-linejoin:round"
             d="m 113.71355,166.17363 a 2.9233255,2.9233255 0 0 1 -2.92333,2.92332 2.9233255,2.9233255 0 0 1 -2.92332,-2.92332 2.9233255,2.9233255 0 0 1 2.92332,-2.92333 2.9233255,2.9233255 0 0 1 2.92333,2.92333 z" /></g><path
           id="path19516"
           style="fill:#ff8200;fill-opacity:1;stroke:#1c1a2d;stroke-width:0.55874;stroke-linecap:round;stroke-linejoin:round;stroke-dasharray:none;stroke-opacity:1"
           inkscape:transform-center-x="-0.0031563181"
           inkscape:transform-center-y="-1.4753596"
           d="m 181.16579,167.34832 c -0.54748,1.073 -2.50316,0.61853 -3.80069,0.61934 -1.29752,0.001 -3.43455,0.45967 -3.98435,-0.61397 -0.5498,-1.07366 0.39401,-2.27465 1.0419,-3.17742 0.64788,-0.90276 1.73538,-2.23829 2.84483,-2.23923 1.10947,-0.001 2.10916,1.44193 2.75881,2.34392 0.64965,0.90198 1.68698,1.99435 1.1395,3.06736 z"
           sodipodi:nodetypes="czczzzc" /><path
           id="path19518"
           style="fill:#ff8200;fill-opacity:1;stroke:#1c1a2d;stroke-width:0.564846;stroke-linecap:round;stroke-linejoin:round;stroke-dasharray:none;stroke-opacity:1"
           inkscape:transform-center-x="0.0023807214"
           inkscape:transform-center-y="1.1151958"
           d="m 174.32142,168.29016 c 0.41377,-0.81099 1.8919,-0.46748 2.8726,-0.46811 0.98069,-6e-4 2.59588,-0.34741 3.01142,0.46406 0.41555,0.81148 -0.2978,1.7192 -0.78747,2.40153 -0.48968,0.68233 -1.31162,1.69173 -2.15018,1.69244 -0.83853,6.1e-4 -1.59411,-1.08983 -2.08513,-1.77155 -0.49101,-0.68173 -1.27504,-1.50737 -0.86124,-2.31837 z"
           sodipodi:nodetypes="czczzzc" /></g></g></g></svg>
