<?xml version="1.0" encoding="UTF-8" standalone="no"?>
<!-- Created with Inkscape (http://www.inkscape.org/) -->

<svg
   width="20px"
   height="20px"
   viewBox="0 0 68.703072 68.703079"
   version="1.1"
   id="svg5"
   xml:space="preserve"
   inkscape:version="1.2.2 (732a01da63, 2022-12-09)"
   sodipodi:docname="logopihiguim.svg"
   xmlns:inkscape="http://www.inkscape.org/namespaces/inkscape"
   xmlns:sodipodi="http://sodipodi.sourceforge.net/DTD/sodipodi-0.dtd"
   xmlns="http://www.w3.org/2000/svg"
   xmlns:svg="http://www.w3.org/2000/svg"><sodipodi:namedview
     id="namedview7"
     pagecolor="#ffffff"
     bordercolor="#000000"
     borderopacity="0.25"
     inkscape:showpageshadow="2"
     inkscape:pageopacity="0.0"
     inkscape:pagecheckerboard="0"
     inkscape:deskcolor="#d1d1d1"
     inkscape:document-units="mm"
     showgrid="false"
     inkscape:zoom="0.77500001"
     inkscape:cx="535.48387"
     inkscape:cy="1073.5484"
     inkscape:window-width="1366"
     inkscape:window-height="697"
     inkscape:window-x="-8"
     inkscape:window-y="-8"
     inkscape:window-maximized="1"
     inkscape:current-layer="layer1" /><defs
     id="defs2" /><g
     inkscape:label="Camada 1"
     inkscape:groupmode="layer"
     id="layer1"
     transform="translate(-94.852885,-140.48742)"><g
       id="g914"
       transform="translate(-4.0967741,-92.860214)"
       inkscape:export-filename="símbolopihiguim.svg"
       inkscape:export-xdpi="96"
       inkscape:export-ydpi="96"><path
         id="path21759"
         style="fill:#ffffff;fill-opacity:1;stroke:#1c1a2d;stroke-width:1.31854;stroke-linecap:round;stroke-linejoin:round;stroke-dasharray:none;stroke-opacity:1"
         d="m 166.99346,267.69916 a 33.692269,33.692269 0 0 1 -33.69227,33.69227 33.692269,33.692269 0 0 1 -33.692264,-33.69227 33.692269,33.692269 0 0 1 33.692264,-33.69226 33.692269,33.692269 0 0 1 33.69227,33.69226 z" /><path
         style="fill:#5f5799;fill-opacity:1;stroke:#1c1a2d;stroke-width:1.31854;stroke-linecap:round;stroke-linejoin:round;stroke-dasharray:none;stroke-opacity:1"
         d="m 130.67808,253.24971 c -1.17275,-4.48846 -15.15494,-7.94513 -22.02016,-6.67603 -2.07687,0.38392 -4.12252,4.01884 -4.26578,3.8756 -0.27172,-0.27174 1.43745,-2.98115 4.0478,-5.8078 2.50058,-2.70778 5.86148,-5.52313 7.61088,-6.40623 11.16841,-5.63782 23.33233,-5.6378 34.50074,0 3.5756,1.80496 11.64551,10.82656 11.11348,11.35861 -0.14324,0.14324 -1.64368,-2.63627 -3.72056,-3.02018 -6.84727,-1.2658 -19.90281,1.99298 -21.42414,6.25791 -1.52133,4.26493 0.21283,11.6205 0.21283,11.6205 0,0 1.55471,5.21972 0.26248,8.14257 -1.29223,2.92285 -1.9121,3.19616 -3.6399,3.19201 -1.7278,-0.004 -2.88704,-0.65647 -4.13684,-3.66309 -1.2498,-3.00661 0.81434,-7.79859 0.81434,-7.79859 0,0 1.81758,-6.58681 0.64483,-11.07528 z"
         id="path21761"
         sodipodi:nodetypes="zscssssczczzzcz" /><g
         id="g21767"
         transform="matrix(1.3427098,0,0,1.3427098,-30.207597,35.812034)"><path
           id="path21763"
           style="fill:#1c1a2d;fill-opacity:1;stroke-width:3.38799;stroke-linecap:round;stroke-linejoin:round"
           d="m 114.70968,167.1996 a 5.0356183,5.0356183 0 0 1 -5.03562,5.03562 5.0356183,5.0356183 0 0 1 -5.03562,-5.03562 5.0356183,5.0356183 0 0 1 5.03562,-5.03562 5.0356183,5.0356183 0 0 1 5.03562,5.03562 z" /><path
           id="path21765"
           style="fill:#ffffff;fill-opacity:1;stroke-width:1.96683;stroke-linecap:round;stroke-linejoin:round"
           d="m 113.71355,166.17363 a 2.9233255,2.9233255 0 0 1 -2.92333,2.92332 2.9233255,2.9233255 0 0 1 -2.92332,-2.92332 2.9233255,2.9233255 0 0 1 2.92332,-2.92333 2.9233255,2.9233255 0 0 1 2.92333,2.92333 z" /></g><g
         id="g21773"
         transform="matrix(1.3427098,0,0,1.3427098,0.90950792,35.812034)"><path
           id="path21769"
           style="fill:#1c1a2d;fill-opacity:1;stroke-width:3.38799;stroke-linecap:round;stroke-linejoin:round"
           d="m 114.70968,167.1996 a 5.0356183,5.0356183 0 0 1 -5.03562,5.03562 5.0356183,5.0356183 0 0 1 -5.03562,-5.03562 5.0356183,5.0356183 0 0 1 5.03562,-5.03562 5.0356183,5.0356183 0 0 1 5.03562,5.03562 z" /><path
           id="path21771"
           style="fill:#ffffff;fill-opacity:1;stroke-width:1.96683;stroke-linecap:round;stroke-linejoin:round"
           d="m 113.71355,166.17363 a 2.9233255,2.9233255 0 0 1 -2.92333,2.92332 2.9233255,2.9233255 0 0 1 -2.92332,-2.92332 2.9233255,2.9233255 0 0 1 2.92332,-2.92333 2.9233255,2.9233255 0 0 1 2.92333,2.92333 z" /></g><path
         id="path21775"
         style="fill:#ff8200;fill-opacity:1;stroke:#1c1a2d;stroke-width:1.22858;stroke-linecap:round;stroke-linejoin:round;stroke-dasharray:none;stroke-opacity:1"
         inkscape:transform-center-x="-0.0031563181"
         inkscape:transform-center-y="-1.4753596"
         d="m 141.95292,274.09086 c -1.20382,2.35939 -5.50405,1.36006 -8.35711,1.36185 -2.85307,0.003 -7.55206,1.01074 -8.76097,-1.35004 -1.2089,-2.36081 0.86637,-5.0016 2.29098,-6.98663 1.42457,-1.98502 3.81582,-4.92165 6.25535,-4.92372 2.43952,-0.003 4.63769,3.17057 6.06616,5.1539 1.42848,1.98332 3.70941,4.38528 2.50559,6.74464 z"
         sodipodi:nodetypes="czczzzc" /><path
         id="path21777"
         style="fill:#ff8200;fill-opacity:1;stroke:#1c1a2d;stroke-width:1.24201;stroke-linecap:round;stroke-linejoin:round;stroke-dasharray:none;stroke-opacity:1"
         inkscape:transform-center-x="0.0023807214"
         inkscape:transform-center-y="1.1151958"
         d="m 126.90321,276.16183 c 0.90985,-1.78325 4.16001,-1.02793 6.3164,-1.02929 2.15639,-0.001 5.70793,-0.76392 6.62165,1.02038 0.91372,1.78433 -0.65481,3.78025 -1.73153,5.28059 -1.07672,1.50032 -2.88406,3.71985 -4.72789,3.7214 -1.84383,0.001 -3.50521,-2.39636 -4.5849,-3.89536 -1.07965,-1.49901 -2.80359,-3.31446 -1.89373,-5.09772 z"
         sodipodi:nodetypes="czczzzc" /></g></g></svg>
